<svg xmlns="http://www.w3.org/2000/svg" width="190.52" height="50.216" viewBox="0 0 190.52 50.216"><g fill="#0e2581" stroke="#0e2581" stroke-miterlimit="2.613" stroke-width=".216"><path d="M.108 50.108v-50h38.848v7.777h-28.8v12.032h26.819v7.777H10.159v14.628h29.957v7.777H10.159v.009zm62.2-1.015a1.9 1.9 0 01-.76-1.466h1.647a.869.869 0 00.258.57.793.793 0 00.566.208.657.657 0 00.47-.163.57.57 0 00.172-.434.561.561 0 00-.158-.407 1.244 1.244 0 00-.395-.267q-.235-.1-.651-.249a7.993 7.993 0 01-.991-.4 1.827 1.827 0 01-.658-.577 1.887 1.887 0 01.014-1.987 1.841 1.841 0 01.8-.638 2.923 2.923 0 011.172-.222 2.626 2.626 0 011.7.507 1.932 1.932 0 01.71 1.394h-1.679a.859.859 0 00-.231-.5.678.678 0 00-.5-.186.646.646 0 00-.439.145.532.532 0 00-.167.425.539.539 0 00.149.385 1.137 1.137 0 00.375.258q.226.1.651.253a7.155 7.155 0 011 .412 1.924 1.924 0 01.67.593 1.7 1.7 0 01.281 1.013 1.765 1.765 0 01-.258.932 1.816 1.816 0 01-.76.679 2.679 2.679 0 01-1.217.254 2.868 2.868 0 01-1.771-.532zm-15.293.1a2.791 2.791 0 01-1.09-1.154 3.912 3.912 0 010-3.384 2.793 2.793 0 011.09-1.154 3.192 3.192 0 011.638-.412 3.128 3.128 0 012.023.643 2.939 2.939 0 011.032 1.741h-1.635a1.5 1.5 0 00-.557-.7 1.556 1.556 0 00-.891-.254 1.358 1.358 0 00-1.1.5 2.327 2.327 0 000 2.656 1.363 1.363 0 001.1.493 1.556 1.556 0 00.891-.253 1.512 1.512 0 00.557-.688h1.635a2.956 2.956 0 01-1.036 1.733 3.115 3.115 0 01-2.023.647 3.19 3.19 0 01-1.634-.41zm37.708.357l-1.385-2.412h-.353v2.416h-1.547v-6.4h2.642a2.851 2.851 0 011.285.263 1.812 1.812 0 01.787.719 2.059 2.059 0 01.262 1.045 1.858 1.858 0 01-.384 1.185 1.967 1.967 0 01-1.118.67l1.52 2.516zm-1.737-3.475h.959a.968.968 0 00.679-.2.786.786 0 00.217-.6.8.8 0 00-.222-.6.929.929 0 00-.674-.217h-.959zm-7.678 3.479v-6.4h3.982v1.23h-2.431v1.339h2.163v1.167h-2.163v1.421h2.434v1.24zm-6.868 0v-6.4h2.507a2.434 2.434 0 011.737.566 2 2 0 01.6 1.525 2.1 2.1 0 01-.267 1.063 1.852 1.852 0 01-.792.733 2.788 2.788 0 01-1.276.267h-.959v2.244zm1.547-3.484h.787q.932 0 .932-.823 0-.841-.932-.842h-.787zm-11.779 3.484l-.4-1.168h-2.4l-.4 1.168h-1.623l2.344-6.353h1.779l2.344 6.353zm-2.4-2.346h1.6l-.8-2.353zm62.685-21.213a1.9 1.9 0 01-.76-1.466h1.647a.868.868 0 00.258.57.793.793 0 00.566.208.657.657 0 00.471-.163.571.571 0 00.172-.434.561.561 0 00-.158-.407 1.242 1.242 0 00-.393-.267q-.236-.1-.652-.249a8.013 8.013 0 01-.991-.4 1.825 1.825 0 01-.661-.579 1.885 1.885 0 01.014-1.987 1.839 1.839 0 01.8-.638 2.915 2.915 0 011.172-.222 2.627 2.627 0 011.7.507 1.935 1.935 0 01.71 1.394h-1.68a.856.856 0 00-.231-.5.679.679 0 00-.5-.185.646.646 0 00-.439.145.531.531 0 00-.167.425.541.541 0 00.149.385 1.14 1.14 0 00.375.258q.227.1.652.253a7.182 7.182 0 011 .412 1.924 1.924 0 01.67.593 1.694 1.694 0 01.28 1.014 1.766 1.766 0 01-.258.932 1.818 1.818 0 01-.76.679 2.676 2.676 0 01-1.217.253 2.866 2.866 0 01-1.766-.529zm-56.458 0a1.9 1.9 0 01-.76-1.466h1.647a.868.868 0 00.258.57.793.793 0 00.566.208.657.657 0 00.471-.163.57.57 0 00.172-.434.56.56 0 00-.158-.407 1.246 1.246 0 00-.394-.267q-.235-.1-.652-.249a8.031 8.031 0 01-.991-.4 1.825 1.825 0 01-.661-.579 1.887 1.887 0 01.014-1.987 1.843 1.843 0 01.8-.638 2.916 2.916 0 011.172-.222 2.627 2.627 0 011.7.507 1.935 1.935 0 01.711 1.394h-1.674a.858.858 0 00-.231-.5.678.678 0 00-.5-.185.646.646 0 00-.439.145.532.532 0 00-.167.425.541.541 0 00.149.385 1.144 1.144 0 00.375.258q.227.1.652.253a7.184 7.184 0 011 .412 1.923 1.923 0 01.669.593 1.7 1.7 0 01.281 1.014 1.766 1.766 0 01-.258.932 1.817 1.817 0 01-.76.679 2.678 2.678 0 01-1.217.253 2.867 2.867 0 01-1.771-.529zm76.872.1a2.8 2.8 0 01-1.09-1.154 3.914 3.914 0 010-3.384 2.8 2.8 0 011.091-1.149 3.192 3.192 0 011.638-.412 3.129 3.129 0 012.022.643 2.939 2.939 0 011.04 1.739h-1.638a1.5 1.5 0 00-.556-.7 1.554 1.554 0 00-.891-.253 1.358 1.358 0 00-1.1.5 2.327 2.327 0 000 2.656 1.363 1.363 0 001.1.493 1.556 1.556 0 00.891-.253 1.511 1.511 0 00.556-.688h1.638a2.955 2.955 0 01-1.036 1.733 3.115 3.115 0 01-2.022.647 3.194 3.194 0 01-1.642-.411zm-92.165 0a2.8 2.8 0 01-1.09-1.154 3.916 3.916 0 010-3.384 2.8 2.8 0 011.09-1.154 3.191 3.191 0 011.638-.412 3.13 3.13 0 012.023.643 2.939 2.939 0 011.036 1.737h-1.631a1.5 1.5 0 00-.556-.7 1.557 1.557 0 00-.891-.253 1.359 1.359 0 00-1.1.5 2.328 2.328 0 000 2.656 1.364 1.364 0 001.1.493 1.559 1.559 0 00.891-.253 1.511 1.511 0 00.556-.688h1.638a2.955 2.955 0 01-1.038 1.74 3.116 3.116 0 01-2.023.647 3.193 3.193 0 01-1.639-.411zm117.241.357v-6.4h3.981v1.231h-2.434v1.339h2.163v1.176h-2.163v1.421h2.434v1.24zm-6.09 0l-2.217-6.4h1.656l1.566 4.814 1.565-4.814h1.656l-2.226 6.4zm-5.638 0v-6.4h1.553v6.4zm-5.212 0v-5.16h-1.719v-1.231h5.013v1.231h-1.738v5.167zm-15.546 0v-6.4h3.982v1.231h-2.434v1.339h2.163v1.176h-2.163v1.421h2.434v1.24zm-6.868 0v-6.4h2.506a2.434 2.434 0 011.738.565 2 2 0 01.6 1.525 2.1 2.1 0 01-.267 1.063 1.85 1.85 0 01-.792.733 2.788 2.788 0 01-1.276.267h-.959v2.244zm1.548-3.484h.787q.932 0 .932-.823 0-.842-.932-.842h-.787zm-12.008 3.484l-1.385-2.416h-.353v2.416h-1.548v-6.4h2.642a2.854 2.854 0 011.285.262 1.811 1.811 0 01.787.719 2.06 2.06 0 01.263 1.045 1.86 1.86 0 01-.384 1.185 1.967 1.967 0 01-1.118.669l1.52 2.516zm-1.738-3.475h.959a.966.966 0 00.679-.2.786.786 0 00.217-.6.8.8 0 00-.222-.6.929.929 0 00-.674-.217h-.959zm-7.674 3.475v-6.4h3.982v1.231h-2.431v1.339h2.163v1.176h-2.163v1.421h2.434v1.24zm-6.868 0v-6.4h2.507a2.435 2.435 0 011.738.565 2 2 0 01.6 1.525 2.1 2.1 0 01-.267 1.063 1.849 1.849 0 01-.792.733 2.788 2.788 0 01-1.276.267h-.959v2.244zm1.547-3.484h.787q.932 0 .932-.823 0-.842-.932-.842h-.787zm-8.506 3.484l-2.588-3.927v3.927h-1.545v-6.4h1.547l2.588 3.963v-3.954h1.548v6.4zm-7.646 0l-.4-1.167h-2.4l-.4 1.167h-1.621l2.345-6.344h1.783l2.344 6.353zm-2.4-2.344h1.6l-.8-2.353zm-5.846 2.344v-6.4h1.547v6.4zm-6.868 0v-6.4h2.507a2.433 2.433 0 011.737.565 2 2 0 01.6 1.525 2.1 2.1 0 01-.267 1.063 1.849 1.849 0 01-.792.733 2.789 2.789 0 01-1.276.267h-.959v2.244zm1.548-3.484h.79q.932 0 .932-.823 0-.842-.932-.842h-.787zm-11.779 3.491l-.4-1.167h-2.4l-.4 1.167h-1.623l2.344-6.351h1.783l2.344 6.353zm-2.4-2.344h1.6l-.8-2.353zM186.403 6.322a1.9 1.9 0 01-.76-1.466h1.647a.868.868 0 00.258.57.793.793 0 00.566.208.656.656 0 00.471-.163.57.57 0 00.172-.434.561.561 0 00-.158-.407 1.243 1.243 0 00-.394-.267q-.235-.1-.652-.249a8.013 8.013 0 01-.991-.4 1.827 1.827 0 01-.661-.579 1.678 1.678 0 01-.276-1 1.682 1.682 0 01.289-.986 1.844 1.844 0 01.8-.638 2.924 2.924 0 011.172-.222 2.627 2.627 0 011.7.507 1.935 1.935 0 01.71 1.394h-1.674a.859.859 0 00-.231-.5.678.678 0 00-.5-.186.65.65 0 00-.439.145.533.533 0 00-.167.425.54.54 0 00.149.385 1.142 1.142 0 00.375.258q.227.1.652.253a7.143 7.143 0 011 .412 1.918 1.918 0 01.669.593 1.692 1.692 0 01.281 1.013 1.763 1.763 0 01-.258.932 1.817 1.817 0 01-.76.679 2.677 2.677 0 01-1.217.253 2.867 2.867 0 01-1.773-.53zm-33.848.1a3.086 3.086 0 01-1.167-1.172 3.342 3.342 0 01-.43-1.692 3.317 3.317 0 01.43-1.688 3.093 3.093 0 011.166-1.162 3.4 3.4 0 013.276 0 3.064 3.064 0 011.163 1.167 3.348 3.348 0 01.425 1.688 3.346 3.346 0 01-.43 1.692 3.09 3.09 0 01-1.167 1.172 3.38 3.38 0 01-3.267 0zm.425-4.208a1.924 1.924 0 00-.448 1.344 1.928 1.928 0 00.448 1.339 1.71 1.71 0 002.412 0 1.915 1.915 0 00.452-1.339 1.927 1.927 0 00-.448-1.339 1.72 1.72 0 00-2.416 0zm-23.505 4.325a2.184 2.184 0 01-.923-.932 3.2 3.2 0 01-.335-1.529V.385h1.538v3.692a1.456 1.456 0 00.285.968 1.191 1.191 0 001.656 0 1.456 1.456 0 00.285-.968V.385h1.547v3.692a3.041 3.041 0 01-.353 1.525 2.3 2.3 0 01-.964.932 2.99 2.99 0 01-1.38.312 2.887 2.887 0 01-1.356-.307zm-7.859-.113a3.09 3.09 0 01-1.167-1.172 3.346 3.346 0 01-.43-1.692 3.321 3.321 0 01.43-1.688 3.1 3.1 0 011.166-1.166 3.4 3.4 0 013.276 0 3.063 3.063 0 011.163 1.167 3.351 3.351 0 01.425 1.688 3.346 3.346 0 01-.429 1.692 3.091 3.091 0 01-1.168 1.172 3.38 3.38 0 01-3.267 0zm.425-4.208a1.924 1.924 0 00-.448 1.344 1.928 1.928 0 00.448 1.339 1.71 1.71 0 002.412 0 1.915 1.915 0 00.452-1.339 1.927 1.927 0 00-.448-1.339 1.72 1.72 0 00-2.416 0zm-76.126 4.1a1.9 1.9 0 01-.76-1.466h1.647a.868.868 0 00.258.57.793.793 0 00.565.208.656.656 0 00.471-.163.57.57 0 00.172-.434.561.561 0 00-.16-.404 1.241 1.241 0 00-.394-.267q-.235-.1-.652-.249a8.033 8.033 0 01-.991-.4 1.831 1.831 0 01-.661-.579 1.677 1.677 0 01-.276-1 1.684 1.684 0 01.289-.986 1.844 1.844 0 01.8-.638 2.922 2.922 0 011.176-.224 2.627 2.627 0 011.7.507 1.935 1.935 0 01.71 1.394h-1.677a.859.859 0 00-.231-.5.678.678 0 00-.5-.186.649.649 0 00-.439.145.532.532 0 00-.167.425.539.539 0 00.149.385 1.141 1.141 0 00.375.258q.227.1.652.253a7.143 7.143 0 011 .412 1.915 1.915 0 01.669.593 1.691 1.691 0 01.281 1.013 1.76 1.76 0 01-.258.932 1.817 1.817 0 01-.76.679 2.678 2.678 0 01-1.217.253 2.866 2.866 0 01-1.771-.527zm31.753.1a2.8 2.8 0 01-1.09-1.154 3.623 3.623 0 01-.384-1.692 3.626 3.626 0 01.384-1.692 2.8 2.8 0 011.09-1.146 3.193 3.193 0 011.64-.412 3.128 3.128 0 012.02.643 2.94 2.94 0 011.036 1.738h-1.637a1.5 1.5 0 00-.556-.7 1.555 1.555 0 00-.891-.253 1.357 1.357 0 00-1.1.5 2.006 2.006 0 00-.416 1.33 1.989 1.989 0 00.42 1.328 1.363 1.363 0 001.1.493 1.553 1.553 0 00.891-.253 1.508 1.508 0 00.556-.688h1.638a2.955 2.955 0 01-1.041 1.73 3.114 3.114 0 01-2.022.647 3.19 3.19 0 01-1.638-.412zm-24.695 0a2.794 2.794 0 01-1.09-1.154 3.623 3.623 0 01-.384-1.692 3.626 3.626 0 01.384-1.692 2.794 2.794 0 011.09-1.146 3.191 3.191 0 011.635-.412 3.129 3.129 0 012.023.643 2.94 2.94 0 011.036 1.738h-1.635a1.5 1.5 0 00-.557-.7 1.555 1.555 0 00-.891-.253 1.357 1.357 0 00-1.095.5 2.007 2.007 0 00-.416 1.33 1.989 1.989 0 00.416 1.328 1.362 1.362 0 001.095.493 1.553 1.553 0 00.891-.253 1.507 1.507 0 00.557-.688h1.638a2.955 2.955 0 01-1.036 1.733 3.115 3.115 0 01-2.023.647 3.188 3.188 0 01-1.638-.415zm129.466.358l-1.385-2.416h-.353v2.423h-1.547V.385h2.643a2.851 2.851 0 011.285.262 1.811 1.811 0 01.787.719 2.061 2.061 0 01.263 1.045 1.856 1.856 0 01-.385 1.185 1.964 1.964 0 01-1.117.67l1.52 2.515zm-1.737-3.468h.959a.965.965 0 00.679-.2.785.785 0 00.217-.6.8.8 0 00-.222-.6.929.929 0 00-.674-.217h-.959zm-7.312 3.475V.385h3.982v1.23h-2.434v1.34h2.163v1.168h-2.163v1.42h2.434v1.24zm-7.538 0V.385h2.416a3.758 3.758 0 011.783.4 2.78 2.78 0 011.157 1.123 3.371 3.371 0 01.4 1.665 3.4 3.4 0 01-.4 1.67 2.822 2.822 0 01-1.158 1.136 3.693 3.693 0 01-1.778.407zm1.548-1.384h.733a1.955 1.955 0 001.407-.48 1.777 1.777 0 00.5-1.348 1.776 1.776 0 00-.5-1.348 1.956 1.956 0 00-1.407-.48h-.733zm-4.923 1.384l-1.384-2.416h-.353v2.416h-1.547V.385h2.642a2.851 2.851 0 011.285.262 1.809 1.809 0 01.787.719 2.059 2.059 0 01.263 1.045 1.856 1.856 0 01-.385 1.185 1.963 1.963 0 01-1.117.67l1.52 2.515zm-1.737-3.475h.959a.965.965 0 00.679-.2.785.785 0 00.217-.6.8.8 0 00-.221-.6.93.93 0 00-.674-.217h-.959zm-16.407 3.475V.385h2.9a2.371 2.371 0 011.516.423 1.46 1.46 0 01.534 1.213 1.5 1.5 0 01-.307.964 1.418 1.418 0 01-.805.5 1.6 1.6 0 01.918.561 1.538 1.538 0 01.339.987 1.59 1.59 0 01-.547 1.285 2.374 2.374 0 01-1.57.461zm1.548-1.258h1.1q.859 0 .859-.706a.673.673 0 00-.226-.539.959.959 0 00-.643-.194h-1.095zm0-2.525h1.013q.805 0 .805-.688t-.823-.688h-1zm-9.113 3.783V1.616h-1.719V.385h5.013v1.23h-1.737v5.168zm-20.089 0v-2.67h-2.425v2.67h-1.546V.385h1.547v2.48h2.425V.385h1.556v6.4zm-8.823 0V1.616h-1.719V.385h5.013v1.23h-1.742v5.168zm-4.823 0V.385h1.547v6.4zm-5.167 0l-1.023-4.28-1.035 4.28h-1.915L92.364.385h1.683l.824 4.633L95.993.385h1.692l1.123 4.633.831-4.633h1.674l-1.529 6.4zm-13.727 0V.385h3.982v1.23h-2.435v1.34h2.162v1.168h-2.162v1.42h2.434v1.24zm-11.275 0l-2.589-3.927v3.927h-1.548V.385h1.548l2.588 3.963V.385h1.545v6.4zm-9.9 0V.385h3.982v1.23h-2.438v1.34h2.163v1.168h-2.163v1.42h2.434v1.24zm-3.52 0V.385h1.548v6.4z"/><path d="M.108 50.108v-50h38.848v7.777h-28.8v12.032h26.819v7.777H10.159v14.628h29.957v7.777H10.159v.009zm62.2-1.015a1.9 1.9 0 01-.76-1.466h1.647a.869.869 0 00.258.57.793.793 0 00.566.208.657.657 0 00.47-.163.57.57 0 00.172-.434.561.561 0 00-.158-.407 1.244 1.244 0 00-.395-.267q-.235-.1-.651-.249a7.993 7.993 0 01-.991-.4 1.827 1.827 0 01-.658-.577 1.887 1.887 0 01.014-1.987 1.841 1.841 0 01.8-.638 2.923 2.923 0 011.172-.222 2.626 2.626 0 011.7.507 1.932 1.932 0 01.71 1.394h-1.679a.859.859 0 00-.231-.5.678.678 0 00-.5-.186.646.646 0 00-.439.145.532.532 0 00-.167.425.539.539 0 00.149.385 1.137 1.137 0 00.375.258q.226.1.651.253a7.155 7.155 0 011 .412 1.924 1.924 0 01.67.593 1.7 1.7 0 01.281 1.013 1.765 1.765 0 01-.258.932 1.816 1.816 0 01-.76.679 2.679 2.679 0 01-1.217.254 2.868 2.868 0 01-1.771-.532zm-15.293.1a2.791 2.791 0 01-1.09-1.154 3.912 3.912 0 010-3.384 2.793 2.793 0 011.09-1.154 3.192 3.192 0 011.638-.412 3.128 3.128 0 012.023.643 2.939 2.939 0 011.032 1.741h-1.635a1.5 1.5 0 00-.557-.7 1.556 1.556 0 00-.891-.254 1.358 1.358 0 00-1.1.5 2.327 2.327 0 000 2.656 1.363 1.363 0 001.1.493 1.556 1.556 0 00.891-.253 1.512 1.512 0 00.557-.688h1.635a2.956 2.956 0 01-1.036 1.733 3.115 3.115 0 01-2.023.647 3.19 3.19 0 01-1.634-.41zm37.708.357l-1.385-2.412h-.353v2.416h-1.547v-6.4h2.642a2.851 2.851 0 011.285.263 1.812 1.812 0 01.787.719 2.059 2.059 0 01.262 1.045 1.858 1.858 0 01-.384 1.185 1.967 1.967 0 01-1.118.67l1.52 2.516zm-1.737-3.475h.959a.968.968 0 00.679-.2.786.786 0 00.217-.6.8.8 0 00-.222-.6.929.929 0 00-.674-.217h-.959zm-7.678 3.479v-6.4h3.982v1.23h-2.431v1.339h2.163v1.167h-2.163v1.421h2.434v1.24zm-6.868 0v-6.4h2.507a2.434 2.434 0 011.737.566 2 2 0 01.6 1.525 2.1 2.1 0 01-.267 1.063 1.852 1.852 0 01-.792.733 2.788 2.788 0 01-1.276.267h-.959v2.244zm1.547-3.484h.787q.932 0 .932-.823 0-.841-.932-.842h-.787zm-11.779 3.484l-.4-1.168h-2.4l-.4 1.168h-1.623l2.344-6.353h1.779l2.344 6.353zm-2.4-2.346h1.6l-.8-2.353zm62.685-21.213a1.9 1.9 0 01-.76-1.466h1.647a.868.868 0 00.258.57.793.793 0 00.566.208.657.657 0 00.471-.163.571.571 0 00.172-.434.561.561 0 00-.158-.407 1.242 1.242 0 00-.393-.267q-.236-.1-.652-.249a8.013 8.013 0 01-.991-.4 1.825 1.825 0 01-.661-.579 1.885 1.885 0 01.014-1.987 1.839 1.839 0 01.8-.638 2.915 2.915 0 011.172-.222 2.627 2.627 0 011.7.507 1.935 1.935 0 01.71 1.394h-1.68a.856.856 0 00-.231-.5.679.679 0 00-.5-.185.646.646 0 00-.439.145.531.531 0 00-.167.425.541.541 0 00.149.385 1.14 1.14 0 00.375.258q.227.1.652.253a7.182 7.182 0 011 .412 1.924 1.924 0 01.67.593 1.694 1.694 0 01.28 1.014 1.766 1.766 0 01-.258.932 1.818 1.818 0 01-.76.679 2.676 2.676 0 01-1.217.253 2.866 2.866 0 01-1.766-.529zm-56.458 0a1.9 1.9 0 01-.76-1.466h1.647a.868.868 0 00.258.57.793.793 0 00.566.208.657.657 0 00.471-.163.57.57 0 00.172-.434.56.56 0 00-.158-.407 1.246 1.246 0 00-.394-.267q-.235-.1-.652-.249a8.031 8.031 0 01-.991-.4 1.825 1.825 0 01-.661-.579 1.887 1.887 0 01.014-1.987 1.843 1.843 0 01.8-.638 2.916 2.916 0 011.172-.222 2.627 2.627 0 011.7.507 1.935 1.935 0 01.711 1.394h-1.674a.858.858 0 00-.231-.5.678.678 0 00-.5-.185.646.646 0 00-.439.145.532.532 0 00-.167.425.541.541 0 00.149.385 1.144 1.144 0 00.375.258q.227.1.652.253a7.184 7.184 0 011 .412 1.923 1.923 0 01.669.593 1.7 1.7 0 01.281 1.014 1.766 1.766 0 01-.258.932 1.817 1.817 0 01-.76.679 2.678 2.678 0 01-1.217.253 2.867 2.867 0 01-1.771-.529zm76.872.1a2.8 2.8 0 01-1.09-1.154 3.914 3.914 0 010-3.384 2.8 2.8 0 011.091-1.149 3.192 3.192 0 011.638-.412 3.129 3.129 0 012.022.643 2.939 2.939 0 011.04 1.739h-1.638a1.5 1.5 0 00-.556-.7 1.554 1.554 0 00-.891-.253 1.358 1.358 0 00-1.1.5 2.327 2.327 0 000 2.656 1.363 1.363 0 001.1.493 1.556 1.556 0 00.891-.253 1.511 1.511 0 00.556-.688h1.638a2.955 2.955 0 01-1.036 1.733 3.115 3.115 0 01-2.022.647 3.194 3.194 0 01-1.642-.411zm-92.165 0a2.8 2.8 0 01-1.09-1.154 3.916 3.916 0 010-3.384 2.8 2.8 0 011.09-1.154 3.191 3.191 0 011.638-.412 3.13 3.13 0 012.023.643 2.939 2.939 0 011.036 1.737h-1.631a1.5 1.5 0 00-.556-.7 1.557 1.557 0 00-.891-.253 1.359 1.359 0 00-1.1.5 2.328 2.328 0 000 2.656 1.364 1.364 0 001.1.493 1.559 1.559 0 00.891-.253 1.511 1.511 0 00.556-.688h1.638a2.955 2.955 0 01-1.038 1.74 3.116 3.116 0 01-2.023.647 3.193 3.193 0 01-1.639-.411zm117.241.357v-6.4h3.981v1.231h-2.434v1.339h2.163v1.176h-2.163v1.421h2.434v1.24zm-6.09 0l-2.217-6.4h1.656l1.566 4.814 1.565-4.814h1.656l-2.226 6.4zm-5.638 0v-6.4h1.553v6.4zm-5.212 0v-5.16h-1.719v-1.231h5.013v1.231h-1.738v5.167zm-15.546 0v-6.4h3.982v1.231h-2.434v1.339h2.163v1.176h-2.163v1.421h2.434v1.24zm-6.868 0v-6.4h2.506a2.434 2.434 0 011.738.565 2 2 0 01.6 1.525 2.1 2.1 0 01-.267 1.063 1.85 1.85 0 01-.792.733 2.788 2.788 0 01-1.276.267h-.959v2.244zm1.548-3.484h.787q.932 0 .932-.823 0-.842-.932-.842h-.787zm-12.008 3.484l-1.385-2.416h-.353v2.416h-1.548v-6.4h2.642a2.854 2.854 0 011.285.262 1.811 1.811 0 01.787.719 2.06 2.06 0 01.263 1.045 1.86 1.86 0 01-.384 1.185 1.967 1.967 0 01-1.118.669l1.52 2.516zm-1.738-3.475h.959a.966.966 0 00.679-.2.786.786 0 00.217-.6.8.8 0 00-.222-.6.929.929 0 00-.674-.217h-.959zm-7.674 3.475v-6.4h3.982v1.231h-2.431v1.339h2.163v1.176h-2.163v1.421h2.434v1.24zm-6.868 0v-6.4h2.507a2.435 2.435 0 011.738.565 2 2 0 01.6 1.525 2.1 2.1 0 01-.267 1.063 1.849 1.849 0 01-.792.733 2.788 2.788 0 01-1.276.267h-.959v2.244zm1.547-3.484h.787q.932 0 .932-.823 0-.842-.932-.842h-.787zm-8.506 3.484l-2.588-3.927v3.927h-1.545v-6.4h1.547l2.588 3.963v-3.954h1.548v6.4zm-7.646 0l-.4-1.167h-2.4l-.4 1.167h-1.621l2.345-6.344h1.783l2.344 6.353zm-2.4-2.344h1.6l-.8-2.353zm-5.846 2.344v-6.4h1.547v6.4zm-6.868 0v-6.4h2.507a2.433 2.433 0 011.737.565 2 2 0 01.6 1.525 2.1 2.1 0 01-.267 1.063 1.849 1.849 0 01-.792.733 2.789 2.789 0 01-1.276.267h-.959v2.244zm1.548-3.484h.79q.932 0 .932-.823 0-.842-.932-.842h-.787zm-11.779 3.491l-.4-1.167h-2.4l-.4 1.167h-1.623l2.344-6.351h1.783l2.344 6.353zm-2.4-2.344h1.6l-.8-2.353zM186.403 6.322a1.9 1.9 0 01-.76-1.466h1.647a.868.868 0 00.258.57.793.793 0 00.566.208.656.656 0 00.471-.163.57.57 0 00.172-.434.561.561 0 00-.158-.407 1.243 1.243 0 00-.394-.267q-.235-.1-.652-.249a8.013 8.013 0 01-.991-.4 1.827 1.827 0 01-.661-.579 1.678 1.678 0 01-.276-1 1.682 1.682 0 01.289-.986 1.844 1.844 0 01.8-.638 2.924 2.924 0 011.172-.222 2.627 2.627 0 011.7.507 1.935 1.935 0 01.71 1.394h-1.674a.859.859 0 00-.231-.5.678.678 0 00-.5-.186.65.65 0 00-.439.145.533.533 0 00-.167.425.54.54 0 00.149.385 1.142 1.142 0 00.375.258q.227.1.652.253a7.143 7.143 0 011 .412 1.918 1.918 0 01.669.593 1.692 1.692 0 01.281 1.013 1.763 1.763 0 01-.258.932 1.817 1.817 0 01-.76.679 2.677 2.677 0 01-1.217.253 2.867 2.867 0 01-1.773-.53zm-33.848.1a3.086 3.086 0 01-1.167-1.172 3.342 3.342 0 01-.43-1.692 3.317 3.317 0 01.43-1.688 3.093 3.093 0 011.166-1.162 3.4 3.4 0 013.276 0 3.064 3.064 0 011.163 1.167 3.348 3.348 0 01.425 1.688 3.346 3.346 0 01-.43 1.692 3.09 3.09 0 01-1.167 1.172 3.38 3.38 0 01-3.267 0zm.425-4.208a1.924 1.924 0 00-.448 1.344 1.928 1.928 0 00.448 1.339 1.71 1.71 0 002.412 0 1.915 1.915 0 00.452-1.339 1.927 1.927 0 00-.448-1.339 1.72 1.72 0 00-2.416 0zm-23.505 4.325a2.184 2.184 0 01-.923-.932 3.2 3.2 0 01-.335-1.529V.385h1.538v3.692a1.456 1.456 0 00.285.968 1.191 1.191 0 001.656 0 1.456 1.456 0 00.285-.968V.385h1.547v3.692a3.041 3.041 0 01-.353 1.525 2.3 2.3 0 01-.964.932 2.99 2.99 0 01-1.38.312 2.887 2.887 0 01-1.356-.307zm-7.859-.113a3.09 3.09 0 01-1.167-1.172 3.346 3.346 0 01-.43-1.692 3.321 3.321 0 01.43-1.688 3.1 3.1 0 011.166-1.166 3.4 3.4 0 013.276 0 3.063 3.063 0 011.163 1.167 3.351 3.351 0 01.425 1.688 3.346 3.346 0 01-.429 1.692 3.091 3.091 0 01-1.168 1.172 3.38 3.38 0 01-3.267 0zm.425-4.208a1.924 1.924 0 00-.448 1.344 1.928 1.928 0 00.448 1.339 1.71 1.71 0 002.412 0 1.915 1.915 0 00.452-1.339 1.927 1.927 0 00-.448-1.339 1.72 1.72 0 00-2.416 0zm-76.126 4.1a1.9 1.9 0 01-.76-1.466h1.647a.868.868 0 00.258.57.793.793 0 00.565.208.656.656 0 00.471-.163.57.57 0 00.172-.434.561.561 0 00-.16-.404 1.241 1.241 0 00-.394-.267q-.235-.1-.652-.249a8.033 8.033 0 01-.991-.4 1.831 1.831 0 01-.661-.579 1.677 1.677 0 01-.276-1 1.684 1.684 0 01.289-.986 1.844 1.844 0 01.8-.638 2.922 2.922 0 011.176-.224 2.627 2.627 0 011.7.507 1.935 1.935 0 01.71 1.394h-1.677a.859.859 0 00-.231-.5.678.678 0 00-.5-.186.649.649 0 00-.439.145.532.532 0 00-.167.425.539.539 0 00.149.385 1.141 1.141 0 00.375.258q.227.1.652.253a7.143 7.143 0 011 .412 1.915 1.915 0 01.669.593 1.691 1.691 0 01.281 1.013 1.76 1.76 0 01-.258.932 1.817 1.817 0 01-.76.679 2.678 2.678 0 01-1.217.253 2.866 2.866 0 01-1.771-.527zm31.753.1a2.8 2.8 0 01-1.09-1.154 3.623 3.623 0 01-.384-1.692 3.626 3.626 0 01.384-1.692 2.8 2.8 0 011.09-1.146 3.193 3.193 0 011.64-.412 3.128 3.128 0 012.02.643 2.94 2.94 0 011.036 1.738h-1.637a1.5 1.5 0 00-.556-.7 1.555 1.555 0 00-.891-.253 1.357 1.357 0 00-1.1.5 2.006 2.006 0 00-.416 1.33 1.989 1.989 0 00.42 1.328 1.363 1.363 0 001.1.493 1.553 1.553 0 00.891-.253 1.508 1.508 0 00.556-.688h1.638a2.955 2.955 0 01-1.041 1.73 3.114 3.114 0 01-2.022.647 3.19 3.19 0 01-1.638-.412zm-24.695 0a2.794 2.794 0 01-1.09-1.154 3.623 3.623 0 01-.384-1.692 3.626 3.626 0 01.384-1.692 2.794 2.794 0 011.09-1.146 3.191 3.191 0 011.635-.412 3.129 3.129 0 012.023.643 2.94 2.94 0 011.036 1.738h-1.635a1.5 1.5 0 00-.557-.7 1.555 1.555 0 00-.891-.253 1.357 1.357 0 00-1.095.5 2.007 2.007 0 00-.416 1.33 1.989 1.989 0 00.416 1.328 1.362 1.362 0 001.095.493 1.553 1.553 0 00.891-.253 1.507 1.507 0 00.557-.688h1.638a2.955 2.955 0 01-1.036 1.733 3.115 3.115 0 01-2.023.647 3.188 3.188 0 01-1.638-.415zm129.466.358l-1.385-2.416h-.353v2.423h-1.547V.385h2.643a2.851 2.851 0 011.285.262 1.811 1.811 0 01.787.719 2.061 2.061 0 01.263 1.045 1.856 1.856 0 01-.385 1.185 1.964 1.964 0 01-1.117.67l1.52 2.515zm-1.737-3.468h.959a.965.965 0 00.679-.2.785.785 0 00.217-.6.8.8 0 00-.222-.6.929.929 0 00-.674-.217h-.959zm-7.312 3.475V.385h3.982v1.23h-2.434v1.34h2.163v1.168h-2.163v1.42h2.434v1.24zm-7.538 0V.385h2.416a3.758 3.758 0 011.783.4 2.78 2.78 0 011.157 1.123 3.371 3.371 0 01.4 1.665 3.4 3.4 0 01-.4 1.67 2.822 2.822 0 01-1.158 1.136 3.693 3.693 0 01-1.778.407zm1.548-1.384h.733a1.955 1.955 0 001.407-.48 1.777 1.777 0 00.5-1.348 1.776 1.776 0 00-.5-1.348 1.956 1.956 0 00-1.407-.48h-.733zm-4.923 1.384l-1.384-2.416h-.353v2.416h-1.547V.385h2.642a2.851 2.851 0 011.285.262 1.809 1.809 0 01.787.719 2.059 2.059 0 01.263 1.045 1.856 1.856 0 01-.385 1.185 1.963 1.963 0 01-1.117.67l1.52 2.515zm-1.737-3.475h.959a.965.965 0 00.679-.2.785.785 0 00.217-.6.8.8 0 00-.221-.6.93.93 0 00-.674-.217h-.959zm-16.407 3.475V.385h2.9a2.371 2.371 0 011.516.423 1.46 1.46 0 01.534 1.213 1.5 1.5 0 01-.307.964 1.418 1.418 0 01-.805.5 1.6 1.6 0 01.918.561 1.538 1.538 0 01.339.987 1.59 1.59 0 01-.547 1.285 2.374 2.374 0 01-1.57.461zm1.548-1.258h1.1q.859 0 .859-.706a.673.673 0 00-.226-.539.959.959 0 00-.643-.194h-1.095zm0-2.525h1.013q.805 0 .805-.688t-.823-.688h-1zm-9.113 3.783V1.616h-1.719V.385h5.013v1.23h-1.737v5.168zm-20.089 0v-2.67h-2.425v2.67h-1.546V.385h1.547v2.48h2.425V.385h1.556v6.4zm-8.823 0V1.616h-1.719V.385h5.013v1.23h-1.742v5.168zm-4.823 0V.385h1.547v6.4zm-5.167 0l-1.023-4.28-1.035 4.28h-1.915L92.364.385h1.683l.824 4.633L95.993.385h1.692l1.123 4.633.831-4.633h1.674l-1.529 6.4zm-13.727 0V.385h3.982v1.23h-2.435v1.34h2.162v1.168h-2.162v1.42h2.434v1.24zm-11.275 0l-2.589-3.927v3.927h-1.548V.385h1.548l2.588 3.963V.385h1.545v6.4zm-9.9 0V.385h3.982v1.23h-2.438v1.34h2.163v1.168h-2.163v1.42h2.434v1.24zm-3.52 0V.385h1.548v6.4z"/></g></svg>