<svg width="240" height="255" xmlns="http://www.w3.org/2000/svg">
 <!-- Created with Method Draw - http://github.com/duopixel/Method-Draw/ -->

 <g>
  <title>background</title>
  <rect fill="#fff" id="canvas_background" height="257" width="242" y="-1" x="-1"/>
  <g display="none" overflow="visible" y="0" x="0" height="100%" width="100%" id="canvasGrid">
   <rect fill="url(#gridpattern)" stroke-width="0" y="0" x="0" height="100%" width="100%"/>
  </g>
 </g>
 <g>
  <title>Layer 1</title>
  <g stroke="null" id="svg_7">
   <g stroke="null" id="svg_9">
    <path stroke="null" id="svg_5" d="m120.420719,249.454421l-55.946824,0c-17.237468,0 -29.762736,-14.380458 -28.216985,-33.136246c2.416993,-29.281059 14.295856,-53.034312 35.992582,-70.8518c7.091719,-5.803178 14.89542,-7.231024 23.476681,-4.834281c6.248582,1.744013 12.534637,3.467628 18.895637,4.548712c9.742916,1.672621 19.111105,-1.019891 28.329403,-4.079562c10.454899,-3.426832 19.673197,-1.336057 27.898467,6.455908c1.939215,1.835803 3.990848,3.53902 5.836382,5.476813c17.228099,18.174451 26.849229,40.27548 27.636157,66.415276c0.505882,16.828195 -11.963177,29.954187 -27.392584,29.974585q-28.263826,0.071392 -56.508915,0.030597z"/>
    <path stroke="null" id="svg_6" d="m120.074096,125.241944c-29.978204,0 -54.532228,-27.098493 -54.494755,-60.112352c0,-33.289229 24.563391,-60.367325 54.635278,-60.326529c30.334196,0 54.878851,27.139289 54.785169,60.479513a55.010005,59.887976 0 0 1 -54.925692,59.959369z"/>
   </g>
  </g>
 </g>
</svg>