<svg xmlns="http://www.w3.org/2000/svg" width="30" height="30" viewBox="0 0 30 30"><path data-name="Path 441" d="M11.953 15.993a2.372 2.372 0 00-1.467-.419H7.428v3.518h3a3.61 3.61 0 00.789-.08 1.866 1.866 0 00.663-.271 1.355 1.355 0 00.457-.51 1.768 1.768 0 00.168-.828 1.668 1.668 0 00-.552-1.41z" fill="#333" fill-rule="evenodd"/><path data-name="Path 442" d="M11.512 13.3a1.343 1.343 0 00.48-1.162 1.517 1.517 0 00-.157-.734 1.163 1.163 0 00-.433-.444 1.751 1.751 0 00-.619-.224 3.779 3.779 0 00-.723-.063H7.428v2.985h2.846a2.036 2.036 0 001.238-.358z" fill="#333" fill-rule="evenodd"/><path data-name="Path 443" d="M0 0v30h30V0zm18.174 9.35h5.178v1.26h-5.178zm-3.233 9.884a3.257 3.257 0 01-1.011 1.156 4.445 4.445 0 01-1.453.663 6.484 6.484 0 01-1.669.215H4.615V8.493h6.023a7.855 7.855 0 011.667.162 3.634 3.634 0 011.29.527 2.471 2.471 0 01.834.975 3.433 3.433 0 01.292 1.5 2.8 2.8 0 01-.438 1.61 3.178 3.178 0 01-1.3 1.054 3.049 3.049 0 011.755 1.19 3.549 3.549 0 01.578 2.051 3.539 3.539 0 01-.375 1.671zm10.427-1.979h-6.675a2.59 2.59 0 00.629 1.8 2.589 2.589 0 002.97.171 1.634 1.634 0 00.679-.82h2.237a4.245 4.245 0 01-1.65 2.387 4.8 4.8 0 01-2.679.72 5.327 5.327 0 01-1.973-.35 4.2 4.2 0 01-1.494-.995 4.55 4.55 0 01-.939-1.542 5.652 5.652 0 01-.332-1.972 5.429 5.429 0 01.342-1.935 4.486 4.486 0 012.468-2.582 4.809 4.809 0 011.929-.376 4.38 4.38 0 012.056.457 4.1 4.1 0 011.443 1.226 5.02 5.02 0 01.813 1.756 6.553 6.553 0 01.176 2.054z" fill="#333" fill-rule="evenodd"/><path data-name="Path 444" d="M20.8 13.675a2.184 2.184 0 00-1.011.207 2.041 2.041 0 00-.643.51 1.821 1.821 0 00-.341.652 2.9 2.9 0 00-.116.61h4.134a2.475 2.475 0 00-.586-1.464 1.9 1.9 0 00-1.437-.515z" fill="#333" fill-rule="evenodd"/></svg>