<svg xmlns="http://www.w3.org/2000/svg" width="18.75" height="20" viewBox="0 0 18.75 20"><g data-name="Group 433"><g data-name="Group 432"><path data-name="Path 461" d="M14.319 9.116a.623.623 0 00-.569-.366h-2.5V.625A.625.625 0 0010.625 0h-2.5A.625.625 0 007.5.625V8.75H5a.625.625 0 00-.47 1.036l4.375 5a.624.624 0 00.94 0l4.375-5a.623.623 0 00.099-.67z" fill="#1a41c9"/></g></g><g data-name="Group 435"><g data-name="Group 434"><path data-name="Path 462" d="M16.25 13.75v3.75H2.5v-3.75H0v5A1.25 1.25 0 001.25 20H17.5a1.249 1.249 0 001.25-1.25v-5z" fill="#1a41c9"/></g></g></svg>