<svg xmlns="http://www.w3.org/2000/svg" width="30" height="30" viewBox="0 0 30 30"><path data-name="Path 445" d="M16.246 13.474v-.044c-.009.015-.021.029-.029.044z" fill="#333" fill-rule="evenodd"/><path data-name="Path 446" d="M0 0v30h30V0zm9.331 24.923H4.88V11.532h4.451zM7.106 9.7h-.03a2.32 2.32 0 11.059-4.628A2.321 2.321 0 117.106 9.7zm18.279 15.223h-4.453v-7.164c0-1.8-.643-3.028-2.255-3.028a2.435 2.435 0 00-2.284 1.628 3.05 3.05 0 00-.148 1.085v7.479h-4.452s.06-12.135 0-13.391h4.453v1.9a4.421 4.421 0 014.012-2.212c2.93 0 5.126 1.913 5.126 6.026z" fill="#333" fill-rule="evenodd"/></svg>