<svg xmlns="http://www.w3.org/2000/svg" width="30" height="30" viewBox="0 0 30 30"><path d="M0 0v30h30V0zm23.258 10.764q.012.274.012.551a12.118 12.118 0 01-18.655 10.21 8.6 8.6 0 006.309-1.764A4.265 4.265 0 016.943 16.8a4.265 4.265 0 001.924-.073A4.264 4.264 0 015.45 12.55v-.054a4.244 4.244 0 001.93.533 4.266 4.266 0 01-1.319-5.688 12.1 12.1 0 008.783 4.452A4.264 4.264 0 0122.1 7.906a8.529 8.529 0 002.706-1.034 4.273 4.273 0 01-1.869 2.358 8.521 8.521 0 002.447-.671 8.653 8.653 0 01-2.126 2.205z" fill="#333" fill-rule="evenodd"/></svg>