<svg xmlns="http://www.w3.org/2000/svg" width="30" height="30" viewBox="0 0 30 30"><path data-name="Path 447" d="M0 0v30h30V0zm25.022 19.91a2.625 2.625 0 01-2.246 2.041 69.781 69.781 0 01-7.776.287 69.793 69.793 0 01-7.777-.287 2.622 2.622 0 01-2.245-2.041A22.209 22.209 0 014.615 15a22.224 22.224 0 01.366-4.909A2.621 2.621 0 017.225 8.05 69.82 69.82 0 0115 7.762a69.811 69.811 0 017.777.288 2.623 2.623 0 012.246 2.041A22.2 22.2 0 0125.385 15a22.23 22.23 0 01-.363 4.91z" fill="#333" fill-rule="evenodd"/><path data-name="Path 448" d="M12.32 18.224l6.6-3.424-6.6-3.444v6.868z" fill="#333" fill-rule="evenodd"/></svg>